TITLE ""
FILE "P1Q_t_0469-0477.mp3" MP3
  TRACK 01 AUDIO
    TITLE "P1Q_t_0469-0477_01"
    INDEX 01 00:00:00
  TRACK 02 AUDIO
    TITLE "P1Q_t_0469-0477_02"
    INDEX 01 00:01:22
  TRACK 03 AUDIO
    TITLE "P1Q_t_0469-0477_03"
    INDEX 01 00:01:45
  TRACK 04 AUDIO
    TITLE "P1Q_t_0469-0477_04"
    INDEX 01 00:03:75
  TRACK 05 AUDIO
    TITLE "P1Q_t_0469-0477_05"
    INDEX 01 00:04:20
  TRACK 06 AUDIO
    TITLE "P1Q_t_0469-0477_06"
    INDEX 01 00:07:61
  TRACK 07 AUDIO
    TITLE "P1Q_t_0469-0477_07"
    INDEX 01 00:08:33
  TRACK 08 AUDIO
    TITLE "P1Q_t_0469-0477_08"
    INDEX 01 00:09:45
  TRACK 09 AUDIO
    TITLE "P1Q_t_0469-0477_09"
    INDEX 01 00:09:66
  TRACK 10 AUDIO
    TITLE "P1Q_t_0469-0477_10"
    INDEX 01 00:11:26
  TRACK 11 AUDIO
    TITLE "P1Q_t_0469-0477_11"
    INDEX 01 00:11:45
  TRACK 12 AUDIO
    TITLE "P1Q_t_0469-0477_12"
    INDEX 01 00:16:03
  TRACK 13 AUDIO
    TITLE "P1Q_t_0469-0477_13"
    INDEX 01 00:16:49
  TRACK 14 AUDIO
    TITLE "P1Q_t_0469-0477_14"
    INDEX 01 00:17:64
  TRACK 15 AUDIO
    TITLE "P1Q_t_0469-0477_15"
    INDEX 01 00:18:08
  TRACK 16 AUDIO
    TITLE "P1Q_t_0469-0477_16"
    INDEX 01 00:19:25
  TRACK 17 AUDIO
    TITLE "P1Q_t_0469-0477_17"
    INDEX 01 00:19:45
  TRACK 18 AUDIO
    TITLE "P1Q_t_0469-0477_18"
    INDEX 01 00:23:19
  TRACK 19 AUDIO
    TITLE "P1Q_t_0469-0477_19"
    INDEX 01 00:23:64
  TRACK 20 AUDIO
    TITLE "P1Q_t_0469-0477_20"
    INDEX 01 00:24:75
  TRACK 21 AUDIO
    TITLE "P1Q_t_0469-0477_21"
    INDEX 01 00:25:24
  TRACK 22 AUDIO
    TITLE "P1Q_t_0469-0477_22"
    INDEX 01 00:26:16
  TRACK 23 AUDIO
    TITLE "P1Q_t_0469-0477_23"
    INDEX 01 00:26:35
  TRACK 24 AUDIO
    TITLE "P1Q_t_0469-0477_24"
    INDEX 01 00:31:15
  TRACK 25 AUDIO
    TITLE "P1Q_t_0469-0477_25"
    INDEX 01 00:31:60
  TRACK 26 AUDIO
    TITLE "P1Q_t_0469-0477_26"
    INDEX 01 00:32:67
  TRACK 27 AUDIO
    TITLE "P1Q_t_0469-0477_27"
    INDEX 01 00:33:14
  TRACK 28 AUDIO
    TITLE "P1Q_t_0469-0477_28"
    INDEX 01 00:35:64
  TRACK 29 AUDIO
    TITLE "P1Q_t_0469-0477_29"
    INDEX 01 00:36:12
  TRACK 30 AUDIO
    TITLE "P1Q_t_0469-0477_30"
    INDEX 01 00:40:74
  TRACK 31 AUDIO
    TITLE "P1Q_t_0469-0477_31"
    INDEX 01 00:41:46
  TRACK 32 AUDIO
    TITLE "P1Q_t_0469-0477_32"
    INDEX 01 00:43:04
  TRACK 33 AUDIO
    TITLE "P1Q_t_0469-0477_33"
    INDEX 01 00:43:26
  TRACK 34 AUDIO
    TITLE "P1Q_t_0469-0477_34"
    INDEX 01 00:45:33
  TRACK 35 AUDIO
    TITLE "P1Q_t_0469-0477_35"
    INDEX 01 00:45:52
  TRACK 36 AUDIO
    TITLE "P1Q_t_0469-0477_36"
    INDEX 01 00:50:38
  TRACK 37 AUDIO
    TITLE "P1Q_t_0469-0477_37"
    INDEX 01 00:51:10
  TRACK 38 AUDIO
    TITLE "P1Q_t_0469-0477_38"
    INDEX 01 00:52:23
  TRACK 39 AUDIO
    TITLE "P1Q_t_0469-0477_39"
    INDEX 01 00:52:48
  TRACK 40 AUDIO
    TITLE "P1Q_t_0469-0477_40"
    INDEX 01 00:57:42
  TRACK 41 AUDIO
    TITLE "P1Q_t_0469-0477_41"
    INDEX 01 00:57:61
  TRACK 42 AUDIO
    TITLE "P1Q_t_0469-0477_42"
    INDEX 01 01:01:51
  TRACK 43 AUDIO
    TITLE "P1Q_t_0469-0477_43"
    INDEX 01 01:02:25
  TRACK 44 AUDIO
    TITLE "P1Q_t_0469-0477_44"
    INDEX 01 01:03:36
  TRACK 45 AUDIO
    TITLE "P1Q_t_0469-0477_45"
    INDEX 01 01:03:58
  TRACK 46 AUDIO
    TITLE "P1Q_t_0469-0477_46"
    INDEX 01 01:07:15
  TRACK 47 AUDIO
    TITLE "P1Q_t_0469-0477_47"
    INDEX 01 01:07:38
  TRACK 48 AUDIO
    TITLE "P1Q_t_0469-0477_48"
    INDEX 01 01:11:16
  TRACK 49 AUDIO
    TITLE "P1Q_t_0469-0477_49"
    INDEX 01 01:11:65
  TRACK 50 AUDIO
    TITLE "P1Q_t_0469-0477_50"
    INDEX 01 01:13:13
  TRACK 51 AUDIO
    TITLE "P1Q_t_0469-0477_51"
    INDEX 01 01:13:35
  TRACK 52 AUDIO
    TITLE "P1Q_t_0469-0477_52"
    INDEX 01 01:14:56
  TRACK 53 AUDIO
    TITLE "P1Q_t_0469-0477_53"
    INDEX 01 01:14:75
  TRACK 54 AUDIO
    TITLE "P1Q_t_0469-0477_54"
    INDEX 01 01:18:73
